<svg xmlns="http://www.w3.org/2000/svg" width="1600" height="900" viewBox="0 0 1600 900">
  <rect width="1600" height="900" fill="#0b0f16"/>
  <rect x="530" y="34" width="540" height="44" rx="12" fill="#151c2c" stroke="#ffffff22"/>
  <text x="800" y="62" text-anchor="middle" fill="#8ea0c3" font-family="Arial" font-size="16">NO • Vespucci Blvd • 21:47</text>

  <rect x="1310" y="35" width="240" height="132" rx="14" fill="#151c2c" stroke="#ffffff22"/>
  <text x="1330" y="61" fill="#8ea0c3" font-family="Arial" font-size="12">#21</text>
  <text x="1525" y="61" fill="#8ea0c3" font-family="Arial" font-size="12" text-anchor="end">34ms</text>
  <text x="1330" y="88" fill="#e9efff" font-family="Arial" font-size="14">LSPD (Chief)</text>
  <text x="1330" y="118" fill="#e9efff" font-family="Arial" font-size="24" font-weight="700">$12,450</text>
  <text x="1330" y="140" fill="#8ea0c3" font-family="Arial" font-size="12">Bank: $65,900</text>

  <rect x="30" y="760" width="430" height="122" rx="16" fill="#151c2c" stroke="#ffffff22"/>
  <g font-family="Arial" text-anchor="middle">
    <g transform="translate(68,821)"><circle r="25" fill="#101723"/><circle r="25" fill="none" stroke="#ef4444" stroke-width="6" stroke-dasharray="120" stroke-dashoffset="24"/><text y="4" fill="#e9efff" font-size="10">100%</text><text y="38" fill="#8ea0c3" font-size="9">HP</text></g>
    <g transform="translate(135,821)"><circle r="25" fill="#101723"/><circle r="25" fill="none" stroke="#60a5fa" stroke-width="6" stroke-dasharray="120" stroke-dashoffset="64"/><text y="4" fill="#e9efff" font-size="10">40%</text><text y="38" fill="#8ea0c3" font-size="9">AR</text></g>
    <g transform="translate(202,821)"><circle r="25" fill="#101723"/><circle r="25" fill="none" stroke="#f59e0b" stroke-width="6" stroke-dasharray="120" stroke-dashoffset="32"/><text y="4" fill="#e9efff" font-size="10">85%</text><text y="38" fill="#8ea0c3" font-size="9">ST</text></g>
    <g transform="translate(269,821)"><circle r="25" fill="#101723"/><circle r="25" fill="none" stroke="#10b981" stroke-width="6" stroke-dasharray="120" stroke-dashoffset="42"/><text y="4" fill="#e9efff" font-size="10">75%</text><text y="38" fill="#8ea0c3" font-size="9">HG</text></g>
    <g transform="translate(336,821)"><circle r="25" fill="#101723"/><circle r="25" fill="none" stroke="#0ea5e9" stroke-width="6" stroke-dasharray="120" stroke-dashoffset="52"/><text y="4" fill="#e9efff" font-size="10">65%</text><text y="38" fill="#8ea0c3" font-size="9">DR</text></g>
    <g transform="translate(403,821)"><circle r="25" fill="#101723"/><circle r="25" fill="none" stroke="#d946ef" stroke-width="6" stroke-dasharray="120" stroke-dashoffset="82"/><text y="4" fill="#e9efff" font-size="10">35%</text><text y="38" fill="#8ea0c3" font-size="9">SX</text></g>
  </g>

  <rect x="655" y="620" width="290" height="262" rx="20" fill="#151c2c" stroke="#ffffff22"/>
  <circle cx="800" cy="750" r="96" fill="#0d1421" stroke="#ffffff18" stroke-width="14"/>
  <circle cx="800" cy="750" r="96" fill="none" stroke="#67e8f9" stroke-width="14" stroke-dasharray="430" stroke-dashoffset="130" transform="rotate(135 800 750)"/>
  <line x1="800" y1="750" x2="852" y2="698" stroke="#f43f5e" stroke-width="5" stroke-linecap="round"/>
  <circle cx="800" cy="750" r="6" fill="#fff"/>
  <text x="800" y="740" text-anchor="middle" fill="#93a4c4" font-family="Arial" font-size="10" letter-spacing="2">KM/H</text>
  <text x="800" y="776" text-anchor="middle" fill="#e9efff" font-family="Arial" font-size="48" font-weight="700">128</text>
  <text x="730" y="818" fill="#93a4c4" font-family="Arial" font-size="12">Fuel</text>
  <text x="860" y="818" fill="#e9efff" font-family="Arial" font-size="12" text-anchor="end">60%</text>
  <rect x="730" y="828" width="130" height="8" rx="4" fill="#ffffff33"/>
  <rect x="730" y="828" width="78" height="8" rx="4" fill="#84cc16"/>

  <rect x="1320" y="812" width="230" height="52" rx="12" fill="#151c2c" stroke="#ffffff22"/>
  <text x="1340" y="844" fill="#67e8f9" font-family="Arial" font-size="12">REDEN</text>
  <text x="1518" y="844" fill="#8ea0c3" font-family="Arial" font-size="12" text-anchor="end">8m</text>
</svg>
