<svg xmlns="http://www.w3.org/2000/svg" width="1600" height="900" viewBox="0 0 1600 900">
  <rect width="1600" height="900" fill="#6d6d6d"/>

  <rect x="1322" y="18" width="244" height="128" rx="10" fill="#3b2a2a" fill-opacity="0.68" stroke="#ffffff30"/>
  <text x="1340" y="43" fill="#fff" font-family="Arial" font-size="12">ID #1</text>
  <text x="1546" y="43" fill="#fff" font-family="Arial" font-size="12" text-anchor="end">90ms</text>
  <text x="1546" y="82" fill="#fff" font-family="Arial" font-size="42" font-weight="700" text-anchor="end">$49 900</text>
  <text x="1546" y="112" fill="#fff" font-family="Arial" font-size="30" font-weight="700" text-anchor="end">$301 930</text>

  <rect x="20" y="730" width="340" height="145" rx="12" fill="#2f2f2f" fill-opacity="0.42" stroke="#ffffff40"/>
  <text x="32" y="760" fill="#fff" font-family="Arial" font-size="20">⚡ Hanger Way</text>
  <text x="32" y="785" fill="#fff" font-family="Arial" font-size="18">N   Cypress Flats</text>
  <text x="320" y="760" fill="#fff" font-family="Arial" font-size="18" text-anchor="end">13:53:25</text>

  <g transform="translate(40,822)">
    <circle cx="0" cy="0" r="24" fill="#2a2a2a"/><circle cx="0" cy="0" r="24" fill="none" stroke="#ff4d4f" stroke-width="6" stroke-dasharray="120" stroke-dashoffset="25"/>
    <circle cx="62" cy="0" r="24" fill="#2a2a2a"/><circle cx="62" cy="0" r="24" fill="none" stroke="#faad14" stroke-width="6" stroke-dasharray="120" stroke-dashoffset="68"/>
    <circle cx="124" cy="0" r="24" fill="#2a2a2a"/><circle cx="124" cy="0" r="24" fill="none" stroke="#40a9ff" stroke-width="6" stroke-dasharray="120" stroke-dashoffset="45"/>
    <circle cx="186" cy="0" r="24" fill="#2a2a2a"/><circle cx="186" cy="0" r="24" fill="none" stroke="#36cfc9" stroke-width="6" stroke-dasharray="120" stroke-dashoffset="36"/>
    <circle cx="248" cy="0" r="24" fill="#2a2a2a"/><circle cx="248" cy="0" r="24" fill="none" stroke="#d3adf7" stroke-width="6" stroke-dasharray="120" stroke-dashoffset="80"/>
  </g>

  <rect x="1268" y="548" width="320" height="338" rx="18" fill="#000" fill-opacity="0.48" stroke="#fff" stroke-opacity="0.2"/>
  <circle cx="1428" cy="717" r="136" fill="#111" stroke="#ffffff2e" stroke-width="4"/>
  <circle cx="1428" cy="717" r="118" fill="none" stroke="#ffffff26" stroke-width="14"/>
  <path d="M1325 780 A118 118 0 1 1 1535 654" fill="none" stroke="#fff" stroke-width="14" stroke-linecap="round"/>
  <line x1="1428" y1="717" x2="1510" y2="670" stroke="#ff4d4f" stroke-width="5" stroke-linecap="round"/>
  <circle cx="1428" cy="717" r="7" fill="#fff"/>
  <g fill="#ffffffb8" font-family="Arial" font-size="10" text-anchor="middle">
    <text x="1320" y="748">0</text><text x="1334" y="697">40</text><text x="1370" y="656">80</text>
    <text x="1428" y="640">120</text><text x="1485" y="656">160</text><text x="1520" y="697">200</text><text x="1536" y="748">240</text>
  </g>
  <text x="1428" y="705" fill="#fff" font-family="Arial" font-size="12" text-anchor="middle" letter-spacing="2">KM/H</text>
  <text x="1428" y="754" fill="#fff" font-family="Arial" font-size="56" font-weight="700" text-anchor="middle">68</text>
  <rect x="1328" y="803" width="200" height="10" rx="5" fill="#ffffff40"/>
  <rect x="1328" y="803" width="118" height="10" rx="5" fill="#95de64"/>
</svg>
